<svg data-v-fde0c5aa="" xmlns="http://www.w3.org/2000/svg" viewBox="0 0 300 300" class="iconAbove"><!----><defs data-v-fde0c5aa=""><linearGradient data-v-fde0c5aa="" gradientTransform="rotate(25)" id="eb666001-fc52-47c4-8e3b-3ee804c15f44" x1="0%" y1="0%" x2="100%" y2="0%"><stop data-v-fde0c5aa="" offset="0%" stop-color="#08C7D6" stop-opacity="1"></stop><stop data-v-fde0c5aa="" offset="100%" stop-color="#02023E" stop-opacity="1"></stop></linearGradient></defs><rect data-v-fde0c5aa="" fill="url(#eb666001-fc52-47c4-8e3b-3ee804c15f44)" x="0" y="0" width="300px" height="300px" class="logo-background-square"></rect><defs data-v-fde0c5aa=""><!----></defs><g data-v-fde0c5aa="" id="3d1b7ed9-0bad-44c8-a0bb-a05ad5a0bc31" fill="#ffffff" transform="matrix(3.9328391710722346,0,0,3.9328391710722346,19.842686422022403,172.48963768166118)"><path d="M9.71 5.60L8.21 10.80L6.51 5.60L5.11 5.60L3.41 10.76L1.91 5.60L0.04 5.60L2.45 12.60L4.22 12.60L5.81 7.86L7.39 12.60L9.17 12.60L11.55 5.60ZM19.71 9.07C19.67 6.97 18.13 5.46 16.01 5.46C13.88 5.46 12.27 7.00 12.27 9.10C12.27 11.20 13.86 12.74 16.03 12.74C17.83 12.74 19.18 11.67 19.58 10.15L17.92 10.15C17.62 10.89 16.92 11.36 16.03 11.36C14.86 11.36 14.04 10.54 13.95 9.36L19.69 9.36ZM16.03 6.86C16.94 6.86 17.59 7.37 17.89 8.17L14.09 8.17C14.40 7.39 15.09 6.86 16.03 6.86ZM24.40 12.74C26.29 12.74 27.83 11.62 27.83 9.73C27.83 6.00 22.86 6.91 22.86 4.76C22.86 3.94 23.50 3.55 24.27 3.55C24.97 3.55 25.60 3.87 26.08 4.46L27.28 3.36C26.62 2.54 25.52 1.96 24.27 1.96C22.63 1.96 21.14 2.99 21.14 4.88C21.14 8.37 26.11 7.51 26.11 9.73C26.11 10.59 25.39 11.10 24.41 11.10C23.35 11.10 22.54 10.50 22.17 9.61L20.70 10.50C21.32 11.81 22.72 12.74 24.40 12.74ZM36.16 2.10L36.16 6.55L31.13 6.55L31.13 2.10L29.42 2.10L29.42 12.60L31.13 12.60L31.13 8.14L36.16 8.14L36.16 12.60L37.87 12.60L37.87 2.10ZM45.17 12.74C48.14 12.74 50.56 10.33 50.56 7.35C50.56 4.38 48.14 1.96 45.17 1.96C42.19 1.96 39.78 4.38 39.78 7.35C39.78 10.33 42.19 12.74 45.17 12.74ZM45.17 11.04C43.10 11.04 41.48 9.43 41.48 7.35C41.48 5.27 43.10 3.66 45.17 3.66C47.25 3.66 48.86 5.27 48.86 7.35C48.86 9.43 47.25 11.04 45.17 11.04ZM58.61 2.10L51.35 2.10L51.35 3.69L54.13 3.69L54.13 12.60L55.83 12.60L55.83 3.69L58.61 3.69ZM62.72 12.74C64.61 12.74 66.15 11.62 66.15 9.73C66.15 6.00 61.18 6.91 61.18 4.76C61.18 3.94 61.83 3.55 62.60 3.55C63.30 3.55 63.93 3.87 64.40 4.46L65.61 3.36C64.94 2.54 63.84 1.96 62.60 1.96C60.95 1.96 59.47 2.99 59.47 4.88C59.47 8.37 64.44 7.51 64.44 9.73C64.44 10.59 63.72 11.10 62.74 11.10C61.67 11.10 60.87 10.50 60.50 9.61L59.03 10.50C59.64 11.81 61.04 12.74 62.72 12.74Z"></path></g><defs data-v-fde0c5aa=""><!----></defs><g data-v-fde0c5aa="" id="350a8004-e718-411c-abfb-40034fa437cf" stroke="none" fill="#ffffff" transform="matrix(1.0585768285507422,0,0,1.0585768285507422,102.99919527338727,72.21897218017558)"><path d="M81.6 59.6c0-.1 0-.1.1-.2 1.6-4.2 2.6-8.8 2.7-13.6v-.9c0-22.1-17.9-40-40-40s-40 17.9-40 40c0 4.6.8 9 2.2 13.1C12 73.7 26.9 85 44.4 85c16.1 0 30-9.6 36.4-23.3 0-.1.1-.1.1-.2.2-.6.5-1.2.7-1.9zm-3.7-13.7v-1.1h-1.1v1.1h-2.5v-1.1h-1.1v1.1h-2.5v-1.1h-1.1v1.1h-2.9v2.9H48.4v-4.7H57v-3.7c.7-.2 1.3-.7 1.6-1.4h17.9c.3 1.2 1.3 2.2 2.5 2.4.1 1.2.2 2.3.2 3.5v.9h-1.3zM44.4 10.1c15.9 0 29.3 10.7 33.5 25.2-.1.1-.2.1-.3.2l-6.9-6.7v-.3H48.8V22h-5.4v6.5h-2.5V22h-5.4v6.5H33V22h-5.4v6.5h-5.1c-.2-1-1.2-1.8-2.3-1.8-1.3 0-2.3 1.1-2.3 2.4 0 1.1.8 2 1.8 2.3V34.7H39.6c.2 1 1.2 1.8 2.3 1.8 1.3 0 2.3-1.1 2.3-2.4s-1-2.4-2.3-2.4c-1.1 0-2 .8-2.3 1.8H20.7v-2.2c.9-.2 1.5-.9 1.7-1.7h31.4V32h13.3v-2.4H70l7 6.7c-.3.5-.5 1-.5 1.6H58.8c-.1-1.2-1.1-2.2-2.3-2.2-1.3 0-2.3 1.1-2.3 2.4 0 1.1.8 2 1.8 2.3V43H38.3c-.3-3.6-3.3-6.5-7-6.5s-6.7 2.9-7 6.5h-1.8v-2.5h-3.6v-1.8h-8.6v4h8.6v-1.1h2.5v4.3h-2.5v-1.1h-8.6v4h8.6V47h3.6V44.1h1.8c.3 3.6 3.3 6.5 7 6.5s6.7-2.9 7-6.5h9V49.9H66.7v4.3H44.1a3.4 3.4 0 0 0-3.4-3.2 3.4 3.4 0 0 0-3.4 3.2H23.9c-.2-1-1.2-1.8-2.3-1.8-1.3 0-2.3 1.1-2.3 2.4s1 2.4 2.3 2.4c1.1 0 2-.8 2.3-1.8h13.5c.4 1.5 1.7 2.5 3.3 2.5 1.6 0 2.9-1.1 3.3-2.5h7v2h2.5v-2h13.3v4.3h-54c-2.1-4.5-3.2-9.4-3.2-14.7-.1-19.3 15.5-34.9 34.8-34.9zm0 69.8c-13.6 0-25.4-7.8-31.1-19.2h29.4v6.4H48v-6.4h2.2v6.4h5.4v-6.4h2.2v6.4h5.4v-6.4h3.6v2.9h2.9v1.1h1.1v-1.1h2.5v1c-6.4 9.2-16.9 15.3-28.9 15.3z"></path></g><!----></svg>