<svg data-v-423bf9ae="" xmlns="http://www.w3.org/2000/svg" viewBox="0 0 59.925089066745095 60" class="icon"><!----><!----><!----><!----><g data-v-423bf9ae="" id="d90f3ae3-1376-4826-8b65-cc8abbf0c360" transform="matrix(0.7490636133343137,0,0,0.7490636133343137,-3.295875418898916,-3.670407133416667)" stroke="none" fill="white"><path d="M81.6 59.6c0-.1 0-.1.1-.2 1.6-4.2 2.6-8.8 2.7-13.6v-.9c0-22.1-17.9-40-40-40s-40 17.9-40 40c0 4.6.8 9 2.2 13.1C12 73.7 26.9 85 44.4 85c16.1 0 30-9.6 36.4-23.3 0-.1.1-.1.1-.2.2-.6.5-1.2.7-1.9zm-3.7-13.7v-1.1h-1.1v1.1h-2.5v-1.1h-1.1v1.1h-2.5v-1.1h-1.1v1.1h-2.9v2.9H48.4v-4.7H57v-3.7c.7-.2 1.3-.7 1.6-1.4h17.9c.3 1.2 1.3 2.2 2.5 2.4.1 1.2.2 2.3.2 3.5v.9h-1.3zM44.4 10.1c15.9 0 29.3 10.7 33.5 25.2-.1.1-.2.1-.3.2l-6.9-6.7v-.3H48.8V22h-5.4v6.5h-2.5V22h-5.4v6.5H33V22h-5.4v6.5h-5.1c-.2-1-1.2-1.8-2.3-1.8-1.3 0-2.3 1.1-2.3 2.4 0 1.1.8 2 1.8 2.3V34.7H39.6c.2 1 1.2 1.8 2.3 1.8 1.3 0 2.3-1.1 2.3-2.4s-1-2.4-2.3-2.4c-1.1 0-2 .8-2.3 1.8H20.7v-2.2c.9-.2 1.5-.9 1.7-1.7h31.4V32h13.3v-2.4H70l7 6.7c-.3.5-.5 1-.5 1.6H58.8c-.1-1.2-1.1-2.2-2.3-2.2-1.3 0-2.3 1.1-2.3 2.4 0 1.1.8 2 1.8 2.3V43H38.3c-.3-3.6-3.3-6.5-7-6.5s-6.7 2.9-7 6.5h-1.8v-2.5h-3.6v-1.8h-8.6v4h8.6v-1.1h2.5v4.3h-2.5v-1.1h-8.6v4h8.6V47h3.6V44.1h1.8c.3 3.6 3.3 6.5 7 6.5s6.7-2.9 7-6.5h9V49.9H66.7v4.3H44.1a3.4 3.4 0 0 0-3.4-3.2 3.4 3.4 0 0 0-3.4 3.2H23.9c-.2-1-1.2-1.8-2.3-1.8-1.3 0-2.3 1.1-2.3 2.4s1 2.4 2.3 2.4c1.1 0 2-.8 2.3-1.8h13.5c.4 1.5 1.7 2.5 3.3 2.5 1.6 0 2.9-1.1 3.3-2.5h7v2h2.5v-2h13.3v4.3h-54c-2.1-4.5-3.2-9.4-3.2-14.7-.1-19.3 15.5-34.9 34.8-34.9zm0 69.8c-13.6 0-25.4-7.8-31.1-19.2h29.4v6.4H48v-6.4h2.2v6.4h5.4v-6.4h2.2v6.4h5.4v-6.4h3.6v2.9h2.9v1.1h1.1v-1.1h2.5v1c-6.4 9.2-16.9 15.3-28.9 15.3z"></path></g><!----></svg>